<svg width="16" height="16" viewBox="0 0 16 16" fill="none" xmlns="http://www.w3.org/2000/svg">
<path fill-rule="evenodd" clip-rule="evenodd" d="M6.66668 12C3.72117 12 1.33335 9.61214 1.33335 6.66662C1.33335 3.7211 3.72117 1.33328 6.66668 1.33328C9.6122 1.33328 12 3.7211 12 6.66662C12 7.89909 11.582 9.03393 10.8799 9.93705L14.4714 13.5285L13.5286 14.4713L9.93711 10.8799C9.03399 11.5819 7.89916 12 6.66668 12ZM10.6667 6.66655C10.6667 8.87569 8.87584 10.6666 6.6667 10.6666C4.45756 10.6666 2.6667 8.87569 2.6667 6.66655C2.6667 4.45741 4.45756 2.66655 6.6667 2.66655C8.87584 2.66655 10.6667 4.45741 10.6667 6.66655Z" fill="#969BA0"/>
</svg>
